<svg xmlns="http://www.w3.org/2000/svg" xmlns:xlink="http://www.w3.org/1999/xlink" width="500" zoomAndPan="magnify" viewBox="0 0 375 374.999991" height="500" preserveAspectRatio="xMidYMid meet" version="1.0"><path fill="#000000" d="M 284.691406 117.894531 C 265.449219 118.453125 244.023438 133.113281 235.046875 160.390625 C 232.546875 157.21875 229.824219 154.253906 226.871094 151.503906 C 227.074219 149.84375 227.328125 148.179688 227.421875 146.539062 L 227.425781 146.398438 C 228.332031 118.421875 212.304688 105.105469 197.007812 101.96875 C 178.25 98.144531 154.089844 107.46875 139.070312 131.882812 C 130.558594 113.230469 111.90625 92.414062 78.832031 96.367188 C 77.820312 96.464844 76.816406 96.605469 75.816406 96.789062 C 74.820312 96.96875 73.828125 97.191406 72.847656 97.457031 C 71.867188 97.722656 70.902344 98.027344 69.945312 98.371094 C 68.992188 98.71875 68.054688 99.101562 67.128906 99.527344 C 66.207031 99.949219 65.304688 100.410156 64.421875 100.910156 C 63.535156 101.410156 62.675781 101.945312 61.835938 102.515625 C 60.996094 103.085938 60.183594 103.691406 59.394531 104.332031 C 58.605469 104.96875 57.84375 105.640625 57.109375 106.34375 C 56.378906 107.046875 55.675781 107.777344 55.003906 108.539062 C 54.332031 109.300781 53.691406 110.085938 53.085938 110.902344 C 52.480469 111.714844 51.910156 112.554688 51.375 113.417969 C 50.839844 114.277344 50.339844 115.164062 49.875 116.066406 C 49.414062 116.96875 48.992188 117.890625 48.605469 118.832031 C 48.21875 119.769531 47.875 120.722656 47.570312 121.691406 C 47.261719 122.660156 47 123.640625 46.773438 124.628906 C 46.550781 125.621094 46.367188 126.617188 46.226562 127.621094 C 39.140625 163.347656 65.667969 218.289062 130.09375 254.179688 C 131.03125 254.699219 132.035156 254.953125 133.105469 254.945312 C 134.179688 254.933594 135.179688 254.660156 136.105469 254.125 C 147.660156 247.167969 158.722656 239.503906 169.292969 231.128906 C 175.058594 237.164062 181.214844 242.773438 187.753906 247.960938 C 194.292969 253.144531 201.152344 257.859375 208.339844 262.105469 C 215.527344 266.347656 222.972656 270.078125 230.671875 273.296875 C 238.371094 276.519531 246.257812 279.195312 254.324219 281.332031 C 255.355469 281.625 256.394531 281.644531 257.433594 281.390625 C 258.476562 281.136719 259.386719 280.640625 260.167969 279.90625 C 263.238281 277.003906 335.296875 208.25 324.480469 154.164062 C 318.976562 126.730469 300.328125 117.40625 284.691406 117.894531 Z M 132.957031 241.8125 C 76.421875 209.085938 52.183594 160.09375 58.160156 129.988281 C 58.324219 128.605469 58.605469 127.246094 59.003906 125.910156 C 59.398438 124.574219 59.90625 123.277344 60.523438 122.027344 C 61.140625 120.777344 61.859375 119.589844 62.679688 118.460938 C 63.5 117.335938 64.40625 116.285156 65.40625 115.3125 C 66.402344 114.339844 67.476562 113.457031 68.625 112.667969 C 69.773438 111.875 70.980469 111.1875 72.246094 110.605469 C 73.511719 110.019531 74.816406 109.546875 76.164062 109.183594 C 77.511719 108.820312 78.878906 108.574219 80.265625 108.445312 C 82.433594 108.179688 84.605469 108.046875 86.789062 108.042969 C 123.054688 108.042969 131.65625 147.21875 132.019531 148.96875 C 132.152344 149.613281 132.378906 150.21875 132.707031 150.789062 C 133.035156 151.355469 133.445312 151.859375 133.933594 152.296875 C 134.425781 152.734375 134.972656 153.082031 135.574219 153.339844 C 136.175781 153.601562 136.804688 153.757812 137.460938 153.8125 C 138.113281 153.871094 138.761719 153.820312 139.398438 153.667969 C 140.039062 153.515625 140.636719 153.265625 141.195312 152.917969 C 141.75 152.570312 142.238281 152.144531 142.660156 151.640625 C 143.078125 151.132812 143.40625 150.574219 143.644531 149.964844 C 154.558594 121.996094 178.019531 110.480469 194.566406 113.886719 C 207.210938 116.476562 214.796875 127.140625 215.273438 142.691406 C 214.53125 142.261719 213.761719 141.933594 213.007812 141.542969 C 212.308594 141.183594 211.613281 140.808594 210.902344 140.480469 C 209.320312 139.746094 207.714844 139.117188 206.09375 138.550781 C 205.613281 138.382812 205.144531 138.171875 204.660156 138.019531 C 202.542969 137.347656 200.386719 136.816406 198.199219 136.429688 C 197.734375 136.347656 197.261719 136.320312 196.792969 136.25 C 195.054688 135.988281 193.308594 135.8125 191.554688 135.726562 C 190.828125 135.691406 190.097656 135.703125 189.367188 135.699219 C 187.8125 135.691406 186.25 135.746094 184.675781 135.878906 C 183.902344 135.941406 183.128906 136.011719 182.347656 136.109375 C 180.710938 136.3125 179.0625 136.605469 177.402344 136.953125 C 176.71875 137.097656 176.039062 137.210938 175.351562 137.378906 C 172.960938 137.957031 170.609375 138.664062 168.296875 139.5 C 166.90625 139.953125 165.546875 140.496094 164.222656 141.121094 C 162.898438 141.746094 161.621094 142.449219 160.382812 143.234375 C 159.148438 144.015625 157.964844 144.875 156.835938 145.804688 C 155.707031 146.738281 154.640625 147.734375 153.636719 148.800781 C 152.628906 149.863281 151.695312 150.988281 150.832031 152.167969 C 149.964844 153.347656 149.175781 154.578125 148.464844 155.859375 C 147.753906 157.136719 147.121094 158.453125 146.574219 159.8125 C 146.027344 161.167969 145.566406 162.554688 145.191406 163.96875 C 144.59375 166.183594 144.1875 168.429688 143.964844 170.710938 C 143.886719 171.472656 143.921875 172.269531 143.878906 173.046875 C 143.796875 174.628906 143.71875 176.210938 143.792969 177.84375 C 143.835938 178.800781 143.988281 179.785156 144.082031 180.757812 C 144.234375 182.257812 144.378906 183.753906 144.652344 185.285156 C 144.84375 186.34375 145.121094 187.421875 145.371094 188.492188 C 145.714844 189.976562 146.0625 191.457031 146.519531 192.960938 C 146.859375 194.085938 147.269531 195.214844 147.671875 196.347656 C 148.191406 197.824219 148.738281 199.300781 149.363281 200.789062 C 149.855469 201.949219 150.390625 203.109375 150.945312 204.277344 C 151.640625 205.75 152.371094 207.21875 153.167969 208.695312 C 153.800781 209.875 154.46875 211.050781 155.164062 212.226562 C 156.027344 213.6875 156.941406 215.144531 157.902344 216.597656 C 158.679688 217.777344 159.46875 218.953125 160.308594 220.128906 C 160.710938 220.691406 161.046875 221.261719 161.460938 221.820312 C 152.316406 228.996094 142.816406 235.660156 132.957031 241.8125 Z M 254.277344 268.640625 C 246.621094 266.519531 239.15625 263.863281 231.882812 260.667969 C 224.609375 257.472656 217.601562 253.769531 210.863281 249.566406 C 204.121094 245.359375 197.71875 240.691406 191.652344 235.5625 C 185.582031 230.433594 179.914062 224.898438 174.644531 218.953125 C 159.65625 200.726562 153.03125 181.375 156.917969 167.183594 C 157.421875 165.285156 158.152344 163.476562 159.113281 161.761719 C 160.074219 160.046875 161.234375 158.476562 162.59375 157.058594 C 163.953125 155.636719 165.464844 154.40625 167.136719 153.371094 C 168.804688 152.332031 170.578125 151.519531 172.453125 150.929688 C 174.234375 150.289062 176.042969 149.742188 177.882812 149.285156 C 178.347656 149.167969 178.8125 149.0625 179.277344 148.960938 C 180.792969 148.621094 182.292969 148.351562 183.777344 148.164062 C 184.066406 148.128906 184.359375 148.070312 184.648438 148.042969 C 186.296875 147.871094 187.953125 147.800781 189.609375 147.828125 C 191.792969 147.847656 193.960938 148.042969 196.113281 148.421875 C 196.605469 148.511719 197.082031 148.671875 197.570312 148.78125 C 199.242188 149.140625 200.882812 149.609375 202.492188 150.1875 C 203.199219 150.441406 203.894531 150.734375 204.589844 151.03125 C 206.054688 151.660156 207.484375 152.367188 208.871094 153.152344 C 209.5 153.507812 210.136719 153.839844 210.757812 154.234375 C 212.78125 155.492188 214.707031 156.886719 216.53125 158.417969 L 216.558594 158.4375 C 223.046875 164.109375 228.246094 170.78125 232.15625 178.460938 C 232.433594 179.054688 232.792969 179.59375 233.242188 180.074219 C 233.691406 180.554688 234.207031 180.949219 234.785156 181.261719 C 235.363281 181.578125 235.972656 181.789062 236.621094 181.90625 C 237.269531 182.019531 237.917969 182.03125 238.566406 181.933594 C 239.214844 181.839844 239.835938 181.644531 240.421875 181.347656 C 241.007812 181.050781 241.535156 180.671875 241.996094 180.203125 C 242.460938 179.738281 242.835938 179.210938 243.128906 178.621094 C 243.421875 178.035156 243.613281 177.414062 243.707031 176.765625 C 247.882812 147.082031 268.121094 130.542969 285.042969 130.050781 C 298.890625 129.523438 309.144531 139.558594 312.554688 156.554688 C 321.023438 198.894531 266.65625 256.238281 254.277344 268.640625 Z M 254.277344 268.640625 " fill-opacity="1" fill-rule="nonzero"/></svg>